PathFileType	4	(X/Y/Z)	RBDS06static.trc
DataRate	CameraRate	NumFrames	NumMarkers	Units	OrigDataRate	OrigDataStartFrame	OrigNumFrames
150.000000	150.000000	4	48	mm	150.000000	75	150
Frame#	Time	L.Ankle			L.Ankle.Medial			L.ASIS			L.GTR			L.Heel.Bottom			L.Heel.Lateral			L.Heel.Top			L.HF			L.Iliac.Crest			L.Knee			L.Knee.Medial			L.MT1			L.MT2			L.MT5			L.PSIS			L.Shank.Bottom.Lateral			L.Shank.Bottom.Medial			L.Shank.Top.Lateral			L.Shank.Top.Medial			L.Thigh.Bottom.Lateral			L.Thigh.Bottom.Medial			L.Thigh.Top.Lateral			L.Thigh.Top.Medial			L.TT			R.Ankle			R.Ankle.Medial			R.ASIS			R.GTR			R.Heel.Bottom			R.Heel.Lateral			R.Heel.Top			R.HF			R.Iliac.Crest			R.Knee			R.Knee.Medial			R.MT1			R.MT2			R.MT5			R.PSIS			R.Shank.Bottom.Lateral			R.Shank.Bottom.Medial			R.Shank.Top.Lateral			R.Shank.Top.Medial			R.Thigh.Bottom.Lateral			R.Thigh.Bottom.Medial			R.Thigh.Top.Lateral			R.Thigh.Top.Medial			R.TT			
		X1	Y1	Z1	X2	Y2	Z2	X3	Y3	Z3	X4	Y4	Z4	X5	Y5	Z5	X6	Y6	Z6	X7	Y7	Z7	X8	Y8	Z8	X9	Y9	Z9	X10	Y10	Z10	X11	Y11	Z11	X12	Y12	Z12	X13	Y13	Z13	X14	Y14	Z14	X15	Y15	Z15	X16	Y16	Z16	X17	Y17	Z17	X18	Y18	Z18	X19	Y19	Z19	X20	Y20	Z20	X21	Y21	Z21	X22	Y22	Z22	X23	Y23	Z23	X24	Y24	Z24	X25	Y25	Z25	X26	Y26	Z26	X27	Y27	Z27	X28	Y28	Z28	X29	Y29	Z29	X30	Y30	Z30	X31	Y31	Z31	X32	Y32	Z32	X33	Y33	Z33	X34	Y34	Z34	X35	Y35	Z35	X36	Y36	Z36	X37	Y37	Z37	X38	Y38	Z38	X39	Y39	Z39	X40	Y40	Z40	X41	Y41	Z41	X42	Y42	Z42	X43	Y43	Z43	X44	Y44	Z44	X45	Y45	Z45	X46	Y46	Z46	X47	Y47	Z47	X48	Y48	Z48	

76	0.5	708.853515625	108.8611831665039	1042.851440429688	730.232666015625	121.0465774536133	1128.588256835938	856.0687866210938	1036.50146484375	1105.914306640625	766.666015625	948.57421875	1049.42041015625	638.0790405273438	43.24375534057617	1078.505859375	672.6198120117188	64.80668640136719	1038.63916015625	649.5238037109375	93.15167236328125	1082.04345703125	718.8677368164063	487.166259765625	1039.0986328125	765.4622192382813	1106.55810546875	1066.42333984375	725.51806640625	558.1087646484375	1043.013427734375	717.9868774414063	535.6074829101563	1175.126220703125	864.6626586914063	63.7627067565918	1122.545043945313	878.8577270507813	65.19677734375	1077.655029296875	831.7313232421875	49.59615325927734	1012.365783691406	686.83837890625	1074.859619140625	1177.957885742188	699.8605346679688	194.2213134765625	1038.624755859375	660.8185424804688	192.4987487792969	1076.411010742188	689.6876831054688	273.5440673828125	1030.982788085938	652.5017700195313	273.2554321289063	1069.729248046875	729.1161499023438	640.5105590820313	1033.464721679688	671.7372436523438	635.8595581054688	1078.311645507813	715.5897827148438	750.3751220703125	1033.211059570313	666.187255859375	746.3636474609375	1080.807373046875	777.2015991210938	456.6047058105469	1092.588256835938	700.8344116210938	115.7831954956055	1412.708740234375	723.996337890625	122.6030120849609	1324.99755859375	856.2166137695313	1036.338134765625	1341.334228515625	777.5188598632813	940.524169921875	1393.118896484375	631.7227783203125	42.57218933105469	1368.839233398438	661.046142578125	65.46377563476563	1410.504028320313	641.4287109375	91.97244262695313	1367.559814453125	722.68115234375	491.4479370117188	1403.01220703125	786.6982421875	1094.513305664063	1386.42822265625	731.42919921875	550.9122924804688	1399.7353515625	730.3495483398438	533.9188842773438	1270.402221679688	857.4212646484375	66.27370452880859	1331.513549804688	859.7111206054688	72.30127716064453	1370.777099609375	819.3099975585938	49.2025260925293	1443.618896484375	690.3232421875	1073.0380859375	1275.656982421875	685.4148559570313	206.8872833251953	1412.830444335938	650.8740844726563	207.19482421875	1374.608276367188	677.6859741210938	291.3721618652344	1417.416748046875	642.8822021484375	287.5714111328125	1376.859741210938	745.8003540039063	647.2894287109375	1413.8115234375	681.1188354492188	650.3482055664063	1377.428466796875	744.1928100585938	758.02734375	1420.486083984375	684.4796142578125	760.5833740234375	1382.609619140625	777.0584716796875	457.5208435058594	1356.6748046875	
77	0.5066666666666667	708.8452758789063	108.8654327392578	1042.854614257813	730.2459106445313	121.0536880493164	1128.594848632813	856.0950927734375	1036.479736328125	1105.915771484375	766.6939697265625	948.5811157226563	1049.429809570313	638.0787353515625	43.24234390258789	1078.5078125	672.6232299804688	64.80636596679688	1038.642822265625	649.5220336914063	93.15410614013672	1082.04736328125	718.8804931640625	487.1684265136719	1039.10400390625	765.4891357421875	1106.557250976563	1066.427001953125	725.524169921875	558.1178588867188	1043.013916015625	718.001953125	535.611083984375	1175.123779296875	864.6683349609375	63.76169967651367	1122.543701171875	878.8657836914063	65.19586944580078	1077.65771484375	831.7327880859375	49.59001541137695	1012.368041992188	686.86572265625	1074.869018554688	1177.959838867188	699.8637084960938	194.2314147949219	1038.621826171875	660.8132934570313	192.5044403076172	1076.42138671875	689.6785888671875	273.5581665039063	1030.975952148438	652.4962158203125	273.2646789550781	1069.732299804688	729.1394653320313	640.51708984375	1033.475463867188	671.751708984375	635.8595581054688	1078.318969726563	715.6007690429688	750.3723754882813	1033.21728515625	666.2063598632813	746.3703002929688	1080.801391601563	777.20361328125	456.6129150390625	1092.596069335938	700.83544921875	115.8003082275391	1412.704467773438	723.9999389648438	122.6019592285156	1325.006225585938	856.2589721679688	1036.339965820313	1341.338134765625	777.5435180664063	940.5224609375	1393.115234375	631.7218017578125	42.57809066772461	1368.83544921875	661.0458374023438	65.45977783203125	1410.4970703125	641.4292602539063	91.97900390625	1367.567016601563	722.6907348632813	491.4499816894531	1403.02685546875	786.7232055664063	1094.500244140625	1386.436279296875	731.4351196289063	550.9135131835938	1399.74072265625	730.3695678710938	533.9154663085938	1270.4072265625	857.4277954101563	66.27106475830078	1331.519897460938	859.7246704101563	72.29250335693359	1370.77587890625	819.3087768554688	49.19807052612305	1443.622680664063	690.3529052734375	1073.044189453125	1275.662841796875	685.4165649414063	206.8988494873047	1412.83056640625	650.877685546875	207.1976013183594	1374.602661132813	677.7001342773438	291.3630981445313	1417.421264648438	642.8916625976563	287.5799255371094	1376.860717773438	745.8091430664063	647.2946166992188	1413.821899414063	681.1436157226563	650.351318359375	1377.437133789063	744.219482421875	758.035400390625	1420.490600585938	684.4999389648438	760.5897827148438	1382.602905273438	777.060302734375	457.5368347167969	1356.684448242188	
78	0.5133333333333334	708.849853515625	108.8631210327148	1042.857666015625	730.2411499023438	121.0476150512695	1128.583618164063	856.1221923828125	1036.47998046875	1105.91845703125	766.7105712890625	948.5660400390625	1049.426879882813	638.0656127929688	43.25239944458008	1078.510009765625	672.611328125	64.81521606445313	1038.647827148438	649.5142211914063	93.16849517822266	1082.044555664063	718.8829345703125	487.1697692871094	1039.096923828125	765.52783203125	1106.555053710938	1066.428466796875	725.5289916992188	558.1229248046875	1043.011108398438	718.016357421875	535.6159057617188	1175.12841796875	864.679443359375	63.76785659790039	1122.540283203125	878.8712768554688	65.19772338867188	1077.660034179688	831.7376098632813	49.59485626220703	1012.366821289063	686.8976440429688	1074.8671875	1177.959716796875	699.8627319335938	194.2300720214844	1038.636596679688	660.81396484375	192.5078277587891	1076.42529296875	689.6743774414063	273.5583801269531	1030.986694335938	652.4949340820313	273.2658081054688	1069.73974609375	729.15087890625	640.5162963867188	1033.473999023438	671.7649536132813	635.8626708984375	1078.3203125	715.6226806640625	750.3775634765625	1033.216918945313	666.2227172851563	746.370361328125	1080.802490234375	777.21337890625	456.6087646484375	1092.594604492188	700.8411865234375	115.7777633666992	1412.713256835938	723.9918823242188	122.6020202636719	1325.011962890625	856.2844848632813	1036.336303710938	1341.338256835938	777.5784301757813	940.5232543945313	1393.118774414063	631.7218627929688	42.58176422119141	1368.84375	661.04541015625	65.46251678466797	1410.506591796875	641.4326782226563	91.97638702392578	1367.5693359375	722.711669921875	491.4514770507813	1403.02880859375	786.7487182617188	1094.49658203125	1386.414184570313	731.4568481445313	550.9161987304688	1399.737182617188	730.388916015625	533.9228515625	1270.418823242188	857.4314575195313	66.27375030517578	1331.517700195313	859.7201538085938	72.29585266113281	1370.775268554688	819.30029296875	49.20343017578125	1443.6240234375	690.3856811523438	1073.047607421875	1275.666625976563	685.4257202148438	206.8961181640625	1412.825073242188	650.882568359375	207.1907806396484	1374.608154296875	677.7073974609375	291.3683166503906	1417.425170898438	642.89404296875	287.5880737304688	1376.863037109375	745.8353881835938	647.2940673828125	1413.8173828125	681.1622314453125	650.3489379882813	1377.429809570313	744.2442016601563	758.0330200195313	1420.490966796875	684.5225830078125	760.5938720703125	1382.60546875	777.0717163085938	457.5340270996094	1356.68359375	
79	0.52	708.8433837890625	108.8593902587891	1042.858642578125	730.2489624023438	121.0561676025391	1128.591430664063	856.1543579101563	1036.482788085938	1105.906127929688	766.7493286132813	948.5740966796875	1049.4306640625	638.062255859375	43.25624465942383	1078.509765625	672.6058349609375	64.82113647460938	1038.640380859375	649.4979248046875	93.16998291015625	1082.046020507813	718.9011840820313	487.1746520996094	1039.100830078125	765.5531616210938	1106.553833007813	1066.43359375	725.5529174804688	558.125244140625	1043.006713867188	718.0175170898438	535.6173095703125	1175.127197265625	864.6680297851563	63.77179718017578	1122.536865234375	878.8661499023438	65.19189453125	1077.663696289063	831.730712890625	49.60157775878906	1012.367797851563	686.9312133789063	1074.874877929688	1177.976196289063	699.868408203125	194.2386169433594	1038.620849609375	660.8167114257813	192.5087280273438	1076.429321289063	689.6780395507813	273.5649108886719	1030.981689453125	652.4995727539063	273.2723999023438	1069.742553710938	729.1578369140625	640.5109252929688	1033.46142578125	671.779052734375	635.8682861328125	1078.317626953125	715.6331787109375	750.3743286132813	1033.222290039063	666.2474975585938	746.3623657226563	1080.806274414063	777.2229614257813	456.6172485351563	1092.586303710938	700.8385009765625	115.7917251586914	1412.722778320313	723.9744873046875	122.6182632446289	1325.005981445313	856.3108520507813	1036.336181640625	1341.340576171875	777.6068725585938	940.51611328125	1393.10400390625	631.724609375	42.57976913452148	1368.84326171875	661.0491333007813	65.46713256835938	1410.50634765625	641.4364013671875	91.98179626464844	1367.57275390625	722.7284545898438	491.459228515625	1403.03076171875	786.7843017578125	1094.496459960938	1386.410766601563	731.4681396484375	550.915771484375	1399.735107421875	730.3931884765625	533.914794921875	1270.4130859375	857.40966796875	66.26918792724609	1331.51513671875	859.7078247070313	72.30429840087891	1370.780883789063	819.2978515625	49.20711135864258	1443.632446289063	690.4095458984375	1073.050415039063	1275.660888671875	685.4327392578125	206.8988647460938	1412.824951171875	650.8829956054688	207.2045135498047	1374.601928710938	677.71435546875	291.3721313476563	1417.414428710938	642.90673828125	287.5824279785156	1376.860229492188	745.85205078125	647.2996215820313	1413.814453125	681.1834106445313	650.3515014648438	1377.425048828125	744.2640380859375	758.0399169921875	1420.483154296875	684.5430908203125	760.6007080078125	1382.6005859375	777.0772094726563	457.5272827148438	1356.682006835938	
